<?xml version="1.0" encoding="utf-8"?>
<!-- Generator: Adobe Illustrator 16.0.0, SVG Export Plug-In . SVG Version: 6.00 Build 0)  -->
<!DOCTYPE svg PUBLIC "-//W3C//DTD SVG 1.1//EN" "http://www.w3.org/Graphics/SVG/1.1/DTD/svg11.dtd">
<svg version="1.1" id="Capa_1" xmlns="http://www.w3.org/2000/svg" xmlns:xlink="http://www.w3.org/1999/xlink" x="0px" y="0px"
	 width="103.5px" height="68.182px" viewBox="161.5 285.909 103.5 68.182" enable-background="new 161.5 285.909 103.5 68.182"
	 xml:space="preserve">
<g>
	<path fill="#EBBA16" d="M243.409,290.539c-9.281,4.924-26.136,0-26.136,0v34.09c0,0,16.855,4.925,26.136,0
		c9.28-4.923,21.591,0,21.591,0v-34.09C265,290.539,252.69,285.615,243.409,290.539z"/>
	<path fill="#424A60" d="M216.137,285.909c-0.627,0-1.137,0.508-1.137,1.136v3.409v62.5c0,0.629,0.509,1.137,1.137,1.137
		s1.136-0.508,1.136-1.137v-62.5v-3.409C217.273,286.417,216.764,285.909,216.137,285.909z"/>
	<path fill="#DBA91F" d="M246.819,289.181c-1.161,0.332-2.308,0.774-3.409,1.359c-3.521,1.868-8.132,2.317-12.5,2.157v34.09
		c4.368,0.16,8.979-0.288,12.5-2.156c1.102-0.586,2.248-1.027,3.409-1.359V289.181z"/>
</g>
</svg>
